<svg width="44" height="44" viewBox="0 0 44 44" fill="none" xmlns="http://www.w3.org/2000/svg">
<path d="M32.9082 6.32568H37.9499V15.1257H32.9082V6.32568Z" fill="#F05540"/>
<path d="M30.9824 1.83301H39.8741V6.5997H30.9824V1.83301Z" fill="#F3705A"/>
<path d="M3.84961 23.7416V43.9999H39.7829V23.7416L21.8162 5.7749C14.8496 12.8332 10.9079 16.7749 3.84961 23.7416Z" fill="#FFD15C"/>
<path d="M39.8746 23.7416L21.9079 5.7749C18.3329 9.25821 15.5829 12.0082 12.8329 14.7582L3.84961 23.7415V27.8665L21.8163 9.89982L39.783 27.8665V28.4165V23.7415H39.8746V23.7416Z" fill="#F7B64C"/>
<path d="M18.6076 43.9996H7.79102V33.3663C7.79102 30.3413 10.266 27.958 13.1993 27.958C16.2243 27.958 18.6076 30.433 18.6076 33.3663V43.9996Z" fill="#415A6B"/>
<path d="M21.8164 27.958H35.9331V40.333H21.8164V27.958Z" fill="#344A5E"/>
<path d="M23.2832 29.4243H28.1415V38.866H23.2832V29.4243ZM29.6082 29.4243H34.4665V38.866H29.6082V29.4243Z" fill="#8AD7F8"/>
<path d="M43.175 19.9833L24.0167 0.825C22.9167 -0.275 20.9917 -0.275 19.8917 0.825L0.825 19.9833C-0.275 21.0833 -0.275 23.0083 0.825 24.1083C1.925 25.2083 3.85 25.2083 4.95 24.1083L22 7.0583L39.05 24.1083C40.15 25.2083 42.075 25.2083 43.175 24.1083C44.275 22.9167 44.275 21.0833 43.175 19.9833Z" fill="#F3705A"/>
</svg>
