<svg width="43" height="44" viewBox="0 0 43 44" fill="none" xmlns="http://www.w3.org/2000/svg">
<path d="M40.4674 43.9988C41.0144 43.9988 41.5391 43.7815 41.9258 43.3947C42.3126 43.0079 42.5299 42.4833 42.5299 41.9363V38.3819C42.5299 34.0438 40.0013 30.1093 36.051 28.308L31.4289 26.2056C29.8465 25.4844 28.1908 24.9363 26.4906 24.5708C23.0477 23.8123 19.4809 23.8123 16.0379 24.5708C14.3381 24.9374 12.6825 25.4855 11.0996 26.2056L6.4776 28.308C4.54617 29.1898 2.9088 30.6081 1.76041 32.3939C0.61202 34.1798 0.000970442 36.258 0 38.3812V41.9363C0 42.4833 0.217298 43.0079 0.60409 43.3947C0.990882 43.7815 1.51548 43.9988 2.06249 43.9988H40.4674Z" fill="#4F5D99"/>
<path d="M11.6676 43.9996H17.1126L16.0085 24.5895C13.7961 25.7218 12.0829 27.193 11.0716 29.0816C10.6398 29.8495 10.5182 30.7673 10.666 31.6301L11.0406 34.0501C11.1555 34.7926 10.6625 35.4939 9.92484 35.6369C9.16928 35.7854 8.68391 36.5272 8.87297 37.269L11.6676 43.9996ZM30.6316 43.9996L33.7198 37.269C33.9089 36.5272 33.4235 35.7854 32.6679 35.6369C32.3128 35.568 31.9982 35.3643 31.7902 35.0684C31.5821 34.7725 31.4968 34.4076 31.5521 34.0501L31.9261 31.6301C32.0746 30.7673 31.9536 29.8495 31.5212 29.0816C30.5099 27.193 28.7354 25.7197 26.5231 24.5874L25.474 43.9996H30.6316Z" fill="#3D4A75"/>
<path d="M25.4204 43.9988L26.5218 24.5866L26.4902 24.5708C23.0472 23.8123 19.4804 23.8123 16.0375 24.5708L16.0059 24.5866L17.1141 43.9988H25.4204Z" fill="#E9E9FF"/>
<path d="M26.5218 24.5776L21.2638 27.6549L23.16 30.4605L26.2832 28.7947L26.5218 24.5776ZM16.0059 24.5776L21.2638 27.6549L19.3677 30.4605L16.2444 28.7947L16.0059 24.5776Z" fill="#CFCFFF"/>
<path d="M19.7229 44.0005H22.807L21.9683 32.2003C21.9394 31.7939 22.0062 31.3863 22.1633 31.0103C22.3205 30.6343 22.5635 30.3004 22.873 30.0354L21.265 27.6553L19.6562 30.0354C19.966 30.3004 20.2092 30.6344 20.3665 31.0105C20.5237 31.3866 20.5906 31.7944 20.5617 32.201L19.7229 44.0005Z" fill="#ED524E"/>
<path d="M27.3126 20.4302L26.6966 23.6463L26.5227 24.5785L21.2688 27.6516L16.0067 24.5785L15.8012 23.4882L15.2168 20.4302H27.3126Z" fill="#FFCBBA"/>
<path d="M27.3126 20.4302L26.6966 23.6463C25.1727 24.8409 23.2918 25.489 21.3555 25.4867H21.3396C19.238 25.4867 17.3109 24.7367 15.8012 23.4882L15.2168 20.4302H27.3126Z" fill="#EFB7A8"/>
<path d="M30.7586 11.1223V6.76703C30.7586 3.27799 27.8415 0.497748 24.3566 0.66481L19.0436 0.919183C17.5846 0.989041 16.1331 0.671932 14.8361 0C14.8361 0 10.707 2.93561 11.2082 6.20466C11.7094 9.47371 11.9425 11.1223 11.9425 11.1223L12.7833 13.4351L16.4105 14.0318L20.6345 13.6021L24.9533 14.7709L27.8408 14.5089L29.5596 13.554L30.7586 11.1223Z" fill="#7F6218"/>
<path d="M29.27 16.4514V16.7801C29.27 21.156 25.7266 24.6987 21.3589 24.6987H21.3438C16.9755 24.6987 13.4321 21.156 13.4321 16.7801V16.4521C13.4321 16.4521 11.7752 14.1765 11.9437 11.122L13.6383 12.7864L13.7153 12.4509C13.7945 12.1348 13.9441 11.8407 14.1531 11.5907C14.362 11.3406 14.6249 11.1411 14.9219 11.0072V9.64041C14.9219 9.22104 15.0972 8.83879 15.3722 8.56379C15.6472 8.28123 16.0288 8.11279 16.4488 8.11279C17.1281 8.11279 17.7929 8.27367 18.4041 8.57892C19.1369 8.95291 20.2672 9.41079 21.3514 9.35029C22.4356 9.41147 23.5651 8.95291 24.2987 8.57892C24.9052 8.27341 25.5748 8.11379 26.2539 8.11279C26.6733 8.11279 27.0555 8.28123 27.3305 8.56379C27.6055 8.83879 27.7808 9.22035 27.7808 9.64041V11.0072C28.0779 11.1411 28.3407 11.3406 28.5497 11.5907C28.7586 11.8407 28.9083 12.1348 28.9874 12.4509L29.0637 12.7864L30.7591 11.122C30.9268 14.1765 29.27 16.4514 29.27 16.4514Z" fill="#FFCBBA"/>
</svg>
