<svg width="44" height="44" viewBox="0 0 44 44" fill="none" xmlns="http://www.w3.org/2000/svg">
<path d="M23.6328 0H1.28906C0.577156 0 0 0.577156 0 1.28906V42.7109C0 43.4228 0.577156 44 1.28906 44H30.5078C31.2197 44 31.7969 43.4228 31.7969 42.7109V8.16406L23.6328 0Z" fill="#FFF5F5"/>
<path d="M15.8984 0V44H30.5078C31.2197 44 31.7969 43.4228 31.7969 42.7109V8.16406L23.6328 0H15.8984Z" fill="#E1EBF0"/>
<path d="M24.5443 0.377609C24.4246 0.25789 24.2825 0.162923 24.1261 0.0981316C23.9697 0.0333404 23.8021 -5.12102e-06 23.6328 5.8989e-10V6.875C23.6328 7.58691 24.21 8.16406 24.9219 8.16406H31.7969C31.7969 7.82212 31.661 7.49427 31.4193 7.25261L24.5443 0.377609Z" fill="#CDE1E6"/>
<path d="M16.6016 28.3059H6.28906C5.57716 28.3059 5 27.7287 5 27.0168C5 26.3049 5.57716 25.7278 6.28906 25.7278H16.6016C17.3135 25.7278 17.8906 26.3049 17.8906 27.0168C17.8906 27.7287 17.3135 28.3059 16.6016 28.3059ZM16.6016 33.4621H6.28906C5.57716 33.4621 5 32.885 5 32.1731C5 31.4612 5.57716 30.884 6.28906 30.884H16.6016C17.3135 30.884 17.8906 31.4612 17.8906 32.1731C17.8906 32.885 17.3135 33.4621 16.6016 33.4621ZM16.6016 38.6184H6.28906C5.57716 38.6184 5 38.0412 5 37.3293C5 36.6174 5.57716 36.0403 6.28906 36.0403H16.6016C17.3135 36.0403 17.8906 36.6174 17.8906 37.3293C17.8906 38.0412 17.3135 38.6184 16.6016 38.6184ZM12.3521 22.7132C11.805 22.4835 11.5478 21.854 11.7773 21.307L17.9247 6.65883C18.1544 6.11175 18.7839 5.85437 19.331 6.08399C19.8781 6.31362 20.1354 6.94319 19.9059 7.49019L13.7584 22.1383C13.5288 22.6854 12.8992 22.9428 12.3521 22.7132Z" fill="#534DCB"/>
<path d="M32.3984 44C38.8058 44 44 38.8058 44 32.3984C44 25.9911 38.8058 20.7969 32.3984 20.7969C25.9911 20.7969 20.7969 25.9911 20.7969 32.3984C20.7969 38.8058 25.9911 44 32.3984 44Z" fill="#FFF36C"/>
<path d="M44 32.3984C44 26.0013 38.7955 20.7969 32.3984 20.7969V44C38.7955 44 44 38.7955 44 32.3984Z" fill="#FFCD00"/>
<path d="M32.3984 41.4219C37.3819 41.4219 41.4219 37.3819 41.4219 32.3984C41.4219 27.4149 37.3819 23.375 32.3984 23.375C27.4149 23.375 23.375 27.4149 23.375 32.3984C23.375 37.3819 27.4149 41.4219 32.3984 41.4219Z" fill="#FFCD00"/>
<path d="M41.4219 32.3984C41.4219 27.4229 37.374 23.375 32.3984 23.375V41.4219C37.374 41.4219 41.4219 37.374 41.4219 32.3984Z" fill="#FF9F22"/>
<path d="M33.863 31.324C33.71 31.27 33.5573 31.2149 33.4049 31.1588V28.1887C33.5996 28.2794 33.7048 28.3769 33.7246 28.3965C34.1156 28.8351 34.7876 28.8784 35.2319 28.4914C35.6792 28.1017 35.7259 27.4232 35.3362 26.9758C35.009 26.6002 34.3434 26.1312 33.4049 25.95V25.5234C33.4049 24.9302 32.9239 24.4492 32.3307 24.4492C31.7375 24.4492 31.2565 24.9302 31.2565 25.5234V26.065C31.2173 26.0759 31.1784 26.0862 31.1388 26.0982C29.9416 26.4588 29.0477 27.4799 28.806 28.7629C28.5836 29.9429 28.9686 31.0864 29.8108 31.747C30.1899 32.0443 30.6493 32.3171 31.2565 32.5989V36.5786C30.8757 36.5087 30.5639 36.3599 30.0921 36.0512C29.5956 35.7264 28.9298 35.8656 28.605 36.3621C28.2803 36.8586 28.4195 37.5244 28.916 37.8492C29.8031 38.4294 30.4555 38.6616 31.2565 38.7446V39.2734C31.2565 39.8667 31.7375 40.3477 32.3307 40.3477C32.9239 40.3477 33.4049 39.8667 33.4049 39.2734V38.6402C35.035 38.1953 36.0795 36.7898 36.3125 35.403C36.6175 33.589 35.6331 31.9498 33.863 31.324ZM31.1367 30.0564C30.9312 29.8953 30.845 29.5436 30.9172 29.1607C30.9603 28.9324 31.0693 28.6761 31.2564 28.4729V30.1454C31.2158 30.1167 31.1759 30.087 31.1367 30.0564ZM34.1939 35.0468C34.1163 35.5085 33.8489 35.9917 33.4049 36.3027V33.4595C34.2768 33.8997 34.2519 34.7013 34.1939 35.0468Z" fill="#FFF36C"/>
<path d="M33.863 31.324C33.7099 31.2699 33.5572 31.2148 33.4049 31.1588V28.1887C33.5996 28.2793 33.7047 28.3769 33.7245 28.3965C34.1156 28.8351 34.7876 28.8783 35.2318 28.4914C35.6791 28.1017 35.7259 27.4232 35.3361 26.9758C35.009 26.6002 34.3434 26.1312 33.4049 25.95V25.5234C33.4049 24.9531 32.96 24.4878 32.3984 24.4526V40.3442C32.96 40.309 33.4049 39.8438 33.4049 39.2734V38.6402C35.0349 38.1952 36.0794 36.7898 36.3125 35.403C36.6175 33.589 35.633 31.9497 33.863 31.324ZM34.1938 35.0468C34.1162 35.5085 33.8488 35.9916 33.4049 36.3026V33.4595C34.2768 33.8997 34.2519 34.7013 34.1938 35.0468Z" fill="#FFCD00"/>
</svg>
