<svg width="42" height="44" viewBox="0 0 42 44" fill="none" xmlns="http://www.w3.org/2000/svg">
<path fill-rule="evenodd" clip-rule="evenodd" d="M40.2282 44H11.4314C10.5669 44 9.86133 43.2947 9.86133 42.43V8.791C9.86133 8.35866 10.0154 7.98653 10.3212 7.68076L17.542 0.459862C17.8478 0.154089 18.2199 0 18.6522 0H40.2282C41.093 0 41.7983 0.705514 41.7983 1.57002V42.4299C41.7983 43.2944 41.0924 44 40.2282 44Z" fill="#EFF4F7"/>
<path fill-rule="evenodd" clip-rule="evenodd" d="M17.5426 0.460484L10.3218 7.68138C10.1822 7.82104 10.0742 7.97451 9.99805 8.14124H16.5849C17.3656 8.14124 18.0025 7.50449 18.0025 6.72363V0.136719C17.8357 0.212873 17.6823 0.320824 17.5426 0.460484Z" fill="#E2E3E3"/>
<path fill-rule="evenodd" clip-rule="evenodd" d="M19.195 32.7664C19.006 32.7664 18.8248 32.6913 18.6911 32.5577C18.5575 32.4241 18.4824 32.2428 18.4824 32.0539C18.4824 31.8649 18.5575 31.6836 18.6911 31.55C18.8248 31.4164 19.006 31.3413 19.195 31.3413H38.1283C38.3173 31.3413 38.4986 31.4164 38.6322 31.55C38.7658 31.6836 38.8409 31.8649 38.8409 32.0539C38.8409 32.2428 38.7658 32.4241 38.6322 32.5577C38.4986 32.6913 38.3173 32.7664 38.1283 32.7664H19.195ZM19.195 40.0165C19.006 40.0165 18.8248 39.9415 18.6911 39.8078C18.5575 39.6742 18.4824 39.493 18.4824 39.304C18.4824 39.115 18.5575 38.9338 18.6911 38.8001C18.8248 38.6665 19.006 38.5914 19.195 38.5914H38.1283C38.3173 38.5914 38.4986 38.6665 38.6322 38.8001C38.7658 38.9338 38.8409 39.115 38.8409 39.304C38.8409 39.493 38.7658 39.6742 38.6322 39.8078C38.4986 39.9415 38.3173 40.0165 38.1283 40.0165H19.195ZM19.195 36.3915C19.006 36.3915 18.8248 36.3164 18.6911 36.1828C18.5575 36.0492 18.4824 35.8679 18.4824 35.679C18.4824 35.49 18.5575 35.3087 18.6911 35.1751C18.8248 35.0415 19.006 34.9664 19.195 34.9664H38.1283C38.3173 34.9664 38.4986 35.0415 38.6322 35.1751C38.7658 35.3087 38.8409 35.49 38.8409 35.679C38.8409 35.8679 38.7658 36.0492 38.6322 36.1828C38.4986 36.3164 38.3173 36.3915 38.1283 36.3915H19.195Z" fill="#8D9CA8"/>
<path fill-rule="evenodd" clip-rule="evenodd" d="M15.7455 31.3413C15.9345 31.3413 16.1158 31.4164 16.2494 31.55C16.383 31.6836 16.4581 31.8649 16.4581 32.0539C16.4581 32.2428 16.383 32.4241 16.2494 32.5577C16.1158 32.6913 15.9345 32.7664 15.7455 32.7664H13.9333C13.7443 32.7664 13.563 32.6913 13.4294 32.5577C13.2958 32.4241 13.2207 32.2428 13.2207 32.0539C13.2207 31.8649 13.2958 31.6836 13.4294 31.55C13.563 31.4164 13.7443 31.3413 13.9333 31.3413H15.7455ZM15.7455 38.5914C15.9345 38.5914 16.1158 38.6665 16.2494 38.8001C16.383 38.9338 16.4581 39.115 16.4581 39.304C16.4581 39.493 16.383 39.6742 16.2494 39.8078C16.1158 39.9415 15.9345 40.0165 15.7455 40.0165H13.9333C13.7443 40.0165 13.563 39.9415 13.4294 39.8078C13.2958 39.6742 13.2207 39.493 13.2207 39.304C13.2207 39.115 13.2958 38.9338 13.4294 38.8001C13.563 38.6665 13.7443 38.5914 13.9333 38.5914H15.7455ZM15.7455 34.9664C15.9345 34.9664 16.1158 35.0415 16.2494 35.1751C16.383 35.3087 16.4581 35.49 16.4581 35.679C16.4581 35.8679 16.383 36.0492 16.2494 36.1828C16.1158 36.3164 15.9345 36.3915 15.7455 36.3915H13.9333C13.7443 36.3915 13.563 36.3164 13.4294 36.1828C13.2958 36.0492 13.2207 35.8679 13.2207 35.679C13.2207 35.49 13.2958 35.3087 13.4294 35.1751C13.563 35.0415 13.7443 34.9664 13.9333 34.9664H15.7455Z" fill="#64B5F6"/>
<path fill-rule="evenodd" clip-rule="evenodd" d="M20.7703 16.9219H23.942C24.0488 16.9221 24.1513 16.9646 24.2268 17.0402C24.3024 17.1158 24.3449 17.2182 24.3451 17.3251V26.9551C24.3449 27.062 24.3023 27.1644 24.2268 27.2399C24.1512 27.3155 24.0488 27.358 23.942 27.3582H20.7703C20.6635 27.358 20.561 27.3155 20.4855 27.2399C20.4099 27.1644 20.3674 27.062 20.3672 26.9551V17.3251C20.3674 17.2182 20.4099 17.1158 20.4854 17.0402C20.561 16.9646 20.6634 16.9221 20.7703 16.9219Z" fill="#FFDA2D"/>
<path fill-rule="evenodd" clip-rule="evenodd" d="M27.7176 13.2788H30.8892C30.9961 13.279 31.0985 13.3215 31.174 13.3971C31.2496 13.4726 31.2921 13.575 31.2924 13.6818V26.9535C31.2921 27.0604 31.2496 27.1628 31.174 27.2384C31.0985 27.3139 30.9961 27.3565 30.8892 27.3567H27.7176C27.6107 27.3565 27.5083 27.3139 27.4328 27.2384C27.3572 27.1628 27.3147 27.0604 27.3145 26.9535V13.6819C27.3147 13.5751 27.3572 13.4727 27.4328 13.3971C27.5083 13.3216 27.6107 13.279 27.7176 13.2788Z" fill="#72D561"/>
<path fill-rule="evenodd" clip-rule="evenodd" d="M34.6648 9.63867H37.8365C37.9433 9.63888 38.0458 9.68142 38.1213 9.75698C38.1969 9.83253 38.2394 9.93495 38.2396 10.0418V26.9548C38.2394 27.0617 38.1969 27.1641 38.1213 27.2396C38.0458 27.3152 37.9433 27.3577 37.8365 27.3579H34.6648C34.558 27.3577 34.4556 27.3152 34.38 27.2396C34.3045 27.1641 34.2619 27.0617 34.2617 26.9548V10.0418C34.2619 9.93495 34.3045 9.83253 34.38 9.75698C34.4556 9.68142 34.558 9.63888 34.6648 9.63867Z" fill="#64B5F6"/>
<path fill-rule="evenodd" clip-rule="evenodd" d="M33.0429 5.99506L15.8321 15.9318C15.669 16.0246 15.4759 16.0492 15.2948 16.0002C15.1137 15.9512 14.9593 15.8326 14.8653 15.6703C14.7712 15.5079 14.7452 15.315 14.7928 15.1335C14.8405 14.9521 14.9579 14.7968 15.1195 14.7015L32.3312 4.7643L30.7237 4.44606C30.6319 4.42815 30.5446 4.39234 30.4667 4.34068C30.3888 4.28902 30.3219 4.22252 30.2696 4.14499C30.2174 4.06745 30.181 3.98038 30.1625 3.88877C30.1439 3.79716 30.1436 3.70278 30.1615 3.61104C30.1794 3.5193 30.2152 3.43198 30.2669 3.35408C30.3185 3.27617 30.385 3.20921 30.4626 3.157C30.5401 3.10479 30.6272 3.06837 30.7188 3.04981C30.8104 3.03126 30.9048 3.03092 30.9965 3.04884L34.4622 3.73502C34.5645 3.75499 34.6613 3.79721 34.7455 3.8587C34.8298 3.9202 34.8995 3.99945 34.9497 4.09087C35 4.18229 35.0295 4.28363 35.0362 4.38772C35.0429 4.49181 35.0267 4.5961 34.9887 4.69323L33.8608 8.00641C33.7347 8.37845 33.331 8.57778 32.959 8.45175C32.5869 8.32572 32.3876 7.92197 32.5136 7.54993L33.0429 5.99506Z" fill="#B4D2D7"/>
<path fill-rule="evenodd" clip-rule="evenodd" d="M15.9342 18.6693V34.8423C15.9342 36.6914 12.3698 38.1903 7.97296 38.1903C3.57608 38.1903 0.0117242 36.6914 0.0117242 34.8423V18.6693C0.00664724 16.8202 3.57617 15.3213 7.97296 15.3213C12.3698 15.3214 15.9342 16.8203 15.9342 18.6693Z" fill="#FFC700"/>
<path fill-rule="evenodd" clip-rule="evenodd" d="M8.90199e-05 34.8503C0.0103319 36.6942 3.56471 38.1878 7.95019 38.1903C9.48066 38.1903 15.9071 37.6234 15.9225 34.8503V30.7991C15.9225 32.6482 12.3581 34.1471 7.96124 34.1471C3.57068 34.1471 0.0102429 32.6525 0 30.8072L8.90199e-05 34.8503ZM7.97246 22.0173C12.3693 22.0173 15.9337 20.5184 15.9337 18.6693C15.9337 16.8203 12.3693 15.3213 7.97246 15.3213C3.57567 15.3213 0.0061457 16.8202 0.0112226 18.6693C0.0187044 21.3784 6.15011 22.0173 7.97246 22.0173ZM8.90199e-05 26.7638C0.0103319 28.6076 3.56471 30.1013 7.95019 30.1038C9.95914 30.1038 15.9077 29.4124 15.9225 26.7638V22.7126C15.9225 24.5616 12.3581 26.0606 7.96124 26.0606C3.57068 26.0606 0.0102429 24.5659 0 22.7206L8.90199e-05 26.7638Z" fill="#F4A40E"/>
<path d="M13.5704 28.2042C17.9585 28.2042 21.5158 24.647 21.5158 20.2589C21.5158 15.8707 17.9585 12.3135 13.5704 12.3135C9.18227 12.3135 5.625 15.8707 5.625 20.2589C5.625 24.647 9.18227 28.2042 13.5704 28.2042Z" fill="#FDB800"/>
<path d="M13.5698 25.7993C16.6298 25.7993 19.1104 23.3187 19.1104 20.2588C19.1104 17.1988 16.6298 14.7183 13.5698 14.7183C10.5099 14.7183 8.0293 17.1988 8.0293 20.2588C8.0293 23.3187 10.5099 25.7993 13.5698 25.7993Z" fill="#FFDA2D"/>
<path fill-rule="evenodd" clip-rule="evenodd" d="M15.4061 17.8751C15.514 18.0281 15.5574 18.2174 15.5267 18.402C15.496 18.5867 15.3938 18.7518 15.2423 18.8616C15.0907 18.9715 14.902 19.0172 14.7169 18.9888C14.5319 18.9605 14.3655 18.8604 14.2538 18.7102C14.202 18.6385 14.1369 18.5811 14.0641 18.5438C13.9952 18.5084 13.9136 18.4884 13.8234 18.4884H13.4326C13.2879 18.4884 13.1559 18.5482 13.0597 18.6443C12.9635 18.7405 12.9037 18.8726 12.9037 19.0173C12.9037 19.162 12.9635 19.2941 13.0597 19.3903C13.1559 19.4865 13.2879 19.5463 13.4326 19.5463H13.7101C14.2482 19.5463 14.7369 19.7659 15.0907 20.1197C15.4445 20.4735 15.6641 20.9622 15.6641 21.5003C15.6641 22.0383 15.4445 22.527 15.0907 22.8808C14.8654 23.1064 14.5885 23.2737 14.2839 23.368V23.555C14.2839 23.744 14.2088 23.9252 14.0752 24.0588C13.9416 24.1925 13.7603 24.2675 13.5714 24.2675C13.3824 24.2675 13.2011 24.1925 13.0675 24.0588C12.9339 23.9252 12.8588 23.744 12.8588 23.555V23.3977C12.7111 23.3608 12.5682 23.307 12.4329 23.2374C12.1538 23.094 11.915 22.8891 11.7365 22.6423C11.6286 22.4894 11.5853 22.3001 11.616 22.1154C11.6466 21.9308 11.7488 21.7656 11.9004 21.6558C12.0519 21.546 12.2407 21.5003 12.4257 21.5286C12.6107 21.557 12.7771 21.6571 12.8888 21.8073C12.9407 21.879 13.0058 21.9363 13.0785 21.9737C13.1475 22.0091 13.2292 22.0291 13.3192 22.0291H13.71C13.8547 22.0291 13.9868 21.9694 14.083 21.8732C14.1792 21.777 14.2389 21.6449 14.2389 21.5002C14.2389 21.3554 14.1792 21.2233 14.083 21.1271C13.9868 21.0309 13.8547 20.9712 13.71 20.9712H13.4325C12.8944 20.9712 12.4057 20.7515 12.0519 20.3978C11.6982 20.044 11.4785 19.5553 11.4785 19.0172C11.4785 18.4791 11.6982 17.9904 12.0519 17.6366C12.2772 17.411 12.5542 17.2438 12.8587 17.1495V16.9626C12.8587 16.7736 12.9338 16.5923 13.0674 16.4587C13.2011 16.3251 13.3823 16.25 13.5713 16.25C13.7603 16.25 13.9415 16.3251 14.0751 16.4587C14.2088 16.5923 14.2838 16.7736 14.2838 16.9626V17.1198C14.4315 17.1567 14.5744 17.2105 14.7098 17.2802C14.9854 17.421 15.224 17.6248 15.4061 17.8751Z" fill="#FDB800"/>
</svg>
