<svg width="44" height="44" viewBox="0 0 44 44" fill="none" xmlns="http://www.w3.org/2000/svg">
<g id="Female teacher">
<path id="Vector" d="M13.2168 0H43.9846V1.87458H13.2168V0Z" fill="#F4A261"/>
<path id="Vector_2" d="M35.6621 0H21.5271C21.2785 0 21.0401 0.0987498 20.8644 0.274526C20.6886 0.450301 20.5898 0.688704 20.5898 0.937289C20.5898 1.18587 20.6886 1.42428 20.8644 1.60005C21.0401 1.77583 21.2785 1.87458 21.5271 1.87458H35.6438C35.8923 1.87458 36.1307 1.77583 36.3065 1.60005C36.4823 1.42428 36.581 1.18587 36.581 0.937289C36.581 0.688704 36.4823 0.450301 36.3065 0.274526C36.1307 0.0987498 35.8923 0 35.6438 0L35.6621 0Z" fill="#F4D49D"/>
<path id="Vector_3" d="M16.916 1.87451H43.9851V24.0761H16.916V1.87451Z" fill="#264653"/>
<path id="Vector_4" d="M20.3441 4.21213C20.0872 4.18603 19.8302 4.26087 19.6275 4.42082C19.4248 4.58077 19.2922 4.81329 19.2578 5.06921V9.28586C19.2567 9.47435 19.3117 9.6589 19.4159 9.81599C19.52 9.97308 19.6686 10.0956 19.8427 10.1679C20.0168 10.2401 20.2085 10.2589 20.3933 10.2219C20.5781 10.1848 20.7476 10.0935 20.8803 9.95961L25.0053 5.83462C25.1382 5.70158 25.2288 5.53219 25.2657 5.34778C25.3026 5.16337 25.2841 4.97218 25.2125 4.79825C25.141 4.62433 25.0196 4.47544 24.8637 4.37034C24.7078 4.26523 24.5242 4.20859 24.3361 4.20754L20.3441 4.21213ZM28.1449 5.95837L20.9766 13.0992C19.8762 14.2029 19.2581 15.6977 19.2578 17.2563V20.8725C19.2911 21.1293 19.4232 21.3629 19.6261 21.5238C19.8289 21.6847 20.0865 21.7602 20.3441 21.7342H33.2186C33.9902 21.7345 34.7542 21.5825 35.4668 21.2868C36.1794 20.991 36.8266 20.5574 37.3711 20.0108L42.2661 15.125C43.3676 14.0202 43.9857 12.5235 43.9848 10.9634V4.21213H32.2974C31.5242 4.21474 30.7592 4.37039 30.0465 4.6701C29.3339 4.96981 28.6875 5.40765 28.1449 5.95837ZM42.8986 18.1133L40.3686 20.625C40.2779 20.7144 40.216 20.8289 40.191 20.9538C40.166 21.0787 40.179 21.2082 40.2284 21.3256C40.2777 21.443 40.3611 21.543 40.4678 21.6125C40.5745 21.6821 40.6996 21.7181 40.8269 21.7158H43.3569C43.5235 21.7134 43.6825 21.6459 43.7999 21.5277C43.9173 21.4094 43.9837 21.2499 43.9848 21.0833V18.5671C43.9852 18.4411 43.9482 18.3178 43.8785 18.2128C43.8089 18.1078 43.7096 18.0258 43.5933 17.9773C43.477 17.9287 43.349 17.9157 43.2253 17.9399C43.1017 17.9641 42.988 18.0245 42.8986 18.1133Z" fill="#265A67"/>
<path id="Vector_5" d="M43.9851 24.0718H19.0977V25.8639H43.9851V24.0718Z" fill="#F4A261"/>
<path id="Vector_6" d="M36.7699 24.0718H27.7546C27.5497 24.116 27.3663 24.229 27.2346 24.392C27.103 24.5551 27.0312 24.7583 27.0312 24.9678C27.0312 25.1773 27.103 25.3806 27.2346 25.5436C27.3663 25.7066 27.5497 25.8197 27.7546 25.8639H36.7699C36.9748 25.8197 37.1583 25.7066 37.2899 25.5436C37.4215 25.3806 37.4933 25.1773 37.4933 24.9678C37.4933 24.7583 37.4215 24.5551 37.2899 24.392C37.1583 24.229 36.9748 24.116 36.7699 24.0718Z" fill="#F4D49D"/>
<path id="Vector_7" d="M43.984 25.8633H16.7637V28.3199H43.984V25.8633Z" fill="#F47543"/>
<path id="Vector_8" d="M4.51768 26.3037C2.53769 24.6904 3.34894 22 3.5781 20.8817L3.95852 19.0483H7.16684V26.3037H4.51768Z" fill="#352D51"/>
<path id="Vector_9" d="M23.2133 12.6815V13.5706C23.2143 16.472 22.6134 19.342 21.4487 21.9994L20.4312 24.5385L6.36958 24.4193C4.27493 21.1924 3.1825 17.4175 3.23 13.5706V12.6815C3.23 10.7748 3.23 1.30108 13.2171 1.30567C22.8512 1.30567 23.2133 10.7748 23.2133 12.6815Z" fill="#353C60"/>
<path id="Vector_10" d="M16.9156 3.91398C14.499 2.92841 11.7926 2.92841 9.376 3.91398C9.20958 3.98793 9.07348 4.11661 8.99033 4.27863C8.90718 4.44065 8.88198 4.62625 8.91893 4.80458C8.95588 4.9829 9.05275 5.14321 9.19343 5.25884C9.33412 5.37448 9.51014 5.43849 9.69225 5.44023H16.5672C16.7495 5.44102 16.9267 5.37969 17.0695 5.26633C17.2122 5.15298 17.3121 4.99436 17.3527 4.81662C17.3933 4.63888 17.3721 4.45263 17.2926 4.28855C17.2131 4.12447 17.0802 3.99236 16.9156 3.91398Z" fill="#355FA1"/>
<path id="Vector_11" d="M19.4549 17.2975C19.5363 19.7481 19.1505 22.1917 18.3182 24.4979L8.13411 24.4109C7.1762 21.9771 6.98828 19.8871 6.98828 17.2975C6.98828 15.8446 6.98828 8.63507 13.2216 8.63965C19.2349 8.63965 19.4549 15.8446 19.4549 17.2975Z" fill="#352D51"/>
<path id="Vector_12" d="M8.27568 23.4893C8.18493 23.4902 8.09598 23.464 8.0201 23.4143C7.94422 23.3645 7.88482 23.2933 7.84943 23.2097C7.40893 22.2534 7.03675 21.267 6.73568 20.2581C6.71823 20.1979 6.7128 20.1349 6.7197 20.0726C6.72661 20.0103 6.74572 19.95 6.77594 19.8951C6.80615 19.8402 6.84689 19.7917 6.89582 19.7526C6.94475 19.7134 7.00091 19.6843 7.0611 19.6668C7.12129 19.6494 7.18432 19.6439 7.24661 19.6509C7.3089 19.6578 7.36921 19.6769 7.42412 19.7071C7.47902 19.7373 7.52743 19.778 7.56659 19.827C7.60575 19.8759 7.63489 19.9321 7.65234 19.9922C7.93404 20.9621 8.28165 21.9115 8.69276 22.8339C8.72616 22.904 8.74119 22.9815 8.73645 23.059C8.7317 23.1365 8.70734 23.2115 8.66565 23.2771C8.62395 23.3426 8.56629 23.3964 8.49808 23.4336C8.42987 23.4707 8.35334 23.4899 8.27568 23.4893Z" fill="#355083"/>
<path id="Vector_13" d="M19.4551 7.20459V13.7221C19.4778 14.5679 19.3309 15.4097 19.0229 16.1979C18.7149 16.986 18.2522 17.7044 17.662 18.3107C17.0717 18.917 16.366 19.3989 15.5865 19.728C14.8069 20.0571 13.9694 20.2266 13.1232 20.2266C12.2771 20.2266 11.4395 20.0571 10.6599 19.728C9.88039 19.3989 9.17467 18.917 8.58446 18.3107C7.99424 17.7044 7.53148 16.986 7.22351 16.1979C6.91554 15.4097 6.7686 14.5679 6.79135 13.7221V7.20459H19.4551Z" fill="#FFAAA0"/>
<path id="Vector_14" d="M18.204 23.6315C18.1252 23.6344 18.047 23.617 17.9769 23.5809C17.9068 23.5447 17.8472 23.4911 17.8039 23.4252C17.7605 23.3593 17.7349 23.2833 17.7296 23.2046C17.7242 23.126 17.7392 23.0472 17.7732 22.976C17.9932 22.4765 18.149 22.1327 18.369 21.5506C18.3894 21.4919 18.4214 21.4379 18.4633 21.3919C18.5051 21.346 18.5559 21.309 18.6125 21.2833C18.6691 21.2575 18.7303 21.2436 18.7925 21.2423C18.8546 21.241 18.9164 21.2523 18.974 21.2756C19.0316 21.2973 19.0841 21.3304 19.1286 21.3729C19.1731 21.4153 19.2086 21.4663 19.233 21.5227C19.2573 21.5792 19.2701 21.64 19.2705 21.7014C19.2709 21.7629 19.2589 21.8239 19.2353 21.8806C19.0015 22.4994 18.8228 22.8935 18.6211 23.3519C18.5863 23.434 18.5284 23.5042 18.4543 23.5539C18.3802 23.6035 18.2932 23.6305 18.204 23.6315Z" fill="#355083"/>
<path id="Vector_15" d="M10.9535 6.84766C10.9535 9.40973 9.21179 10.5647 6.6543 10.8581V6.84766H10.9535ZM16.1876 6.98057C16.1876 8.9789 17.5947 9.84973 19.6022 10.0743V6.98057H16.1876Z" fill="#353C60"/>
<path id="Vector_16" d="M5.61719 14.2082H6.79052V11.9165H5.61719C5.33825 11.9519 5.08179 12.0877 4.89589 12.2987C4.70999 12.5096 4.60742 12.7812 4.60742 13.0623C4.60742 13.3435 4.70999 13.615 4.89589 13.826C5.08179 14.0369 5.33825 14.1728 5.61719 14.2082ZM20.6321 11.9165H19.4542V14.2082H20.6321C20.9111 14.1728 21.1676 14.0369 21.3535 13.826C21.5394 13.615 21.6419 13.3435 21.6419 13.0623C21.6419 12.7812 21.5394 12.5096 21.3535 12.2987C21.1676 12.0877 20.9111 11.9519 20.6321 11.9165Z" fill="#FFAAA0"/>
<g id="Group">
<path id="Vector_17" d="M10.9531 14.1021C10.8315 14.1021 10.715 14.0538 10.629 13.9679C10.5431 13.8819 10.4948 13.7653 10.4948 13.6438V13.3321C10.4948 13.2075 10.5443 13.088 10.6324 12.9999C10.7205 12.9118 10.84 12.8623 10.9646 12.8623C11.0891 12.8623 11.2086 12.9118 11.2967 12.9999C11.3848 13.088 11.4343 13.2075 11.4343 13.3321V13.6438C11.4344 13.7059 11.4219 13.7675 11.3974 13.8246C11.3729 13.8818 11.3371 13.9334 11.2921 13.9763C11.2471 14.0191 11.1938 14.0524 11.1355 14.074C11.0773 14.0957 11.0152 14.1052 10.9531 14.1021ZM11.2281 12.113H9.81185C9.69029 12.113 9.57371 12.0647 9.48776 11.9787C9.4018 11.8928 9.35352 11.7762 9.35352 11.6546C9.35352 11.5331 9.4018 11.4165 9.48776 11.3305C9.57371 11.2446 9.69029 11.1963 9.81185 11.1963H11.2281C11.3497 11.1963 11.4662 11.2446 11.5522 11.3305C11.6381 11.4165 11.6864 11.5331 11.6864 11.6546C11.6864 11.7762 11.6381 11.8928 11.5522 11.9787C11.4662 12.0647 11.3497 12.113 11.2281 12.113ZM15.5685 14.1021C15.4469 14.1021 15.3304 14.0538 15.2444 13.9679C15.1585 13.8819 15.1102 13.7653 15.1102 13.6438V13.3321C15.1102 13.2106 15.1585 13.094 15.2444 13.008C15.3304 12.9221 15.4469 12.8738 15.5685 12.8738C15.6901 12.8738 15.8066 12.9221 15.8926 13.008C15.9785 13.094 16.0268 13.2106 16.0268 13.3321V13.6438C16.0268 13.7653 15.9785 13.8819 15.8926 13.9679C15.8066 14.0538 15.6901 14.1021 15.5685 14.1021ZM16.8427 12.113H15.4264C15.3049 12.113 15.1883 12.0647 15.1023 11.9787C15.0164 11.8928 14.9681 11.7762 14.9681 11.6546C14.9681 11.5331 15.0164 11.4165 15.1023 11.3305C15.1883 11.2446 15.3049 11.1963 15.4264 11.1963H16.8427C16.9642 11.1963 17.0808 11.2446 17.1668 11.3305C17.2527 11.4165 17.301 11.5331 17.301 11.6546C17.301 11.7762 17.2527 11.8928 17.1668 11.9787C17.0808 12.0647 16.9642 12.113 16.8427 12.113Z" fill="#302D3D"/>
</g>
<path id="Vector_18" d="M11.8138 17.948C11.7026 17.8933 11.6177 17.7967 11.5777 17.6794C11.5377 17.562 11.546 17.4336 11.6007 17.3224C11.6554 17.2112 11.7521 17.1262 11.8694 17.0863C11.9867 17.0463 12.1151 17.0546 12.2263 17.1093C12.534 17.2607 12.8741 17.3344 13.2169 17.3241C13.5596 17.3137 13.8946 17.2195 14.1926 17.0497C14.2453 17.0179 14.3038 16.9971 14.3647 16.9884C14.4256 16.9798 14.4876 16.9835 14.5471 16.9993C14.6065 17.0151 14.6622 17.0428 14.7107 17.0806C14.7593 17.1183 14.7997 17.1655 14.8297 17.2193C14.8641 17.2732 14.8869 17.3338 14.8965 17.397C14.9062 17.4603 14.9024 17.5249 14.8856 17.5866C14.8688 17.6484 14.8392 17.7059 14.7988 17.7555C14.7583 17.8051 14.708 17.8457 14.6509 17.8747C14.2206 18.1196 13.7365 18.2544 13.2416 18.2672C12.7466 18.28 12.2562 18.1703 11.8138 17.948Z" fill="#FF8282"/>
<path id="Vector_19" d="M15.1874 9.52375C15.164 9.58079 15.1293 9.63252 15.0854 9.67584C15.0416 9.71916 14.9894 9.75318 14.932 9.77586C14.8747 9.79854 14.8134 9.80942 14.7517 9.80784C14.6901 9.80626 14.6294 9.79225 14.5733 9.76667C14.0433 9.56853 13.5821 9.22112 13.2454 8.76645C12.9086 8.31178 12.7108 7.7693 12.6758 7.20459H13.5924C13.625 7.58712 13.7685 7.95183 14.0055 8.25391C14.2424 8.55598 14.5624 8.78228 14.9262 8.905C14.9854 8.92656 15.0396 8.9601 15.0853 9.00353C15.1309 9.04696 15.1672 9.09935 15.1917 9.15742C15.2162 9.2155 15.2285 9.278 15.2278 9.34103C15.227 9.40406 15.2133 9.46626 15.1874 9.52375Z" fill="#353C60"/>
<path id="Vector_20" d="M33.2569 11.6313L34.7405 11.9659L31.4313 26.6326L29.9473 26.298L33.2569 11.6313Z" fill="#F4894D"/>
<path id="Vector_21" d="M28.7721 5.14281L27.5712 6.34364C27.4831 6.43177 27.4336 6.55129 27.4336 6.67593C27.4336 6.80056 27.4831 6.92009 27.5712 7.00822C27.6594 7.09635 27.7789 7.14586 27.9035 7.14586C28.0282 7.14586 28.1477 7.09635 28.2358 7.00822L28.6346 6.60489V10.8261C28.6346 10.9477 28.6829 11.0643 28.7688 11.1502C28.8548 11.2362 28.9713 11.2845 29.0929 11.2845C29.2145 11.2845 29.331 11.2362 29.417 11.1502C29.5029 11.0643 29.5512 10.9477 29.5512 10.8261V5.50031C29.5576 5.40747 29.5355 5.31491 29.488 5.23492C29.4404 5.15493 29.3697 5.0913 29.2851 5.0525C29.2005 5.01369 29.1061 5.00155 29.0145 5.01768C28.9229 5.03381 28.8383 5.07746 28.7721 5.14281ZM36.8662 5.14281L35.6654 6.34364C35.6217 6.38697 35.5871 6.43848 35.5633 6.49522C35.5396 6.55195 35.5273 6.61281 35.5271 6.67431C35.5269 6.73581 35.5388 6.79675 35.5621 6.85364C35.5854 6.91054 35.6197 6.96229 35.6631 7.00593C35.7064 7.04956 35.7579 7.08424 35.8147 7.10797C35.8714 7.1317 35.9323 7.14402 35.9938 7.14424C36.0553 7.14445 36.1162 7.13255 36.1731 7.10921C36.23 7.08587 36.2817 7.05155 36.3254 7.00822L36.7287 6.60489V10.8261C36.7287 10.9477 36.777 11.0643 36.8629 11.1502C36.9489 11.2362 37.0655 11.2845 37.187 11.2845C37.3086 11.2845 37.4252 11.2362 37.5111 11.1502C37.5971 11.0643 37.6454 10.9477 37.6454 10.8261V5.50031C37.6517 5.40747 37.6296 5.31491 37.5821 5.23492C37.5346 5.15493 37.4638 5.0913 37.3792 5.0525C37.2947 5.01369 37.2003 5.00155 37.1086 5.01768C37.017 5.03381 36.9324 5.07746 36.8662 5.14281ZM34.5516 7.68197H33.3508V6.48114C33.3508 6.35958 33.3025 6.243 33.2166 6.15705C33.1306 6.07109 33.014 6.02281 32.8925 6.02281C32.7709 6.02281 32.6543 6.07109 32.5684 6.15705C32.4824 6.243 32.4341 6.35958 32.4341 6.48114V7.68197H31.215C31.0934 7.68197 30.9768 7.73025 30.8909 7.81621C30.8049 7.90216 30.7566 8.01874 30.7566 8.1403C30.7566 8.26186 30.8049 8.37843 30.8909 8.46439C30.9768 8.55034 31.0934 8.59863 31.215 8.59863H32.4158V9.79946C32.4158 9.92102 32.4641 10.0376 32.55 10.1235C32.636 10.2095 32.7526 10.2578 32.8741 10.2578C32.9957 10.2578 33.1123 10.2095 33.1982 10.1235C33.2842 10.0376 33.3325 9.92102 33.3325 9.79946V8.62155H34.5333C34.6549 8.62155 34.7714 8.57326 34.8574 8.4873C34.9433 8.40135 34.9916 8.28477 34.9916 8.16321C34.9916 8.04166 34.9433 7.92508 34.8574 7.83913C34.7714 7.75317 34.6549 7.70488 34.5333 7.70488L34.5516 7.68197Z" fill="white"/>
<path id="Vector_22" d="M31.2248 30.9695L25.7249 40.2094C25.5308 40.5415 25.2731 40.8319 24.9664 41.064C24.6598 41.2961 24.3104 41.4654 23.9381 41.5621C23.5659 41.6587 23.1783 41.6809 22.7974 41.6273C22.4166 41.5738 22.0501 41.4455 21.719 41.2498L21.9849 43.9998H11.4157C3.43617 39.8107 5.57658 40.9748 2.33159 39.1094C1.27698 38.5017 0.502245 37.5052 0.17329 36.3333C-0.155665 35.1614 -0.0126903 33.9072 0.571598 32.8395C1.51576 31.1115 3.702 27.1195 5.05408 25.6941C5.64697 24.9977 6.32796 24.3814 7.07991 23.8607C8.23054 23.1056 9.57652 22.7026 10.9528 22.7011C15.1603 22.7011 15.6003 22.6599 16.407 22.8066C19.377 23.297 21.8565 25.8132 22.8649 28.6595C23.4414 30.3912 23.9007 32.1598 24.2399 33.9532L27.5353 28.302L31.2248 30.9695Z" fill="#F4D493"/>
<path id="Vector_23" d="M29.3186 29.5996L25.0286 36.6212C24.929 36.7841 24.7844 36.9148 24.6122 36.9974C24.4401 37.08 24.2477 37.1111 24.0583 37.0868C23.8689 37.0626 23.6906 36.9841 23.5448 36.8609C23.3989 36.7376 23.2919 36.5748 23.2365 36.392L21.3344 30.035C20.2069 26.2675 16.4623 24.0767 12.7407 24.0767C11.2374 24.0767 10.5132 24.0217 9.39945 24.3425L8.64778 24.5579C8.32883 24.6488 7.99158 24.6543 7.66983 24.5739C7.34808 24.4935 7.0531 24.3299 6.81445 24.0996C8.02179 23.2135 9.47854 22.7322 10.9761 22.7246C15.1836 22.7246 15.6236 22.6833 16.4303 22.83C19.4002 23.3204 21.8798 25.8367 22.8882 28.6829C23.4562 30.4172 23.9154 32.1852 24.2632 33.9766L27.5586 28.3254L29.3186 29.5996Z" fill="#F4F7BB"/>
<path id="Vector_24" d="M16.4074 22.8202C16.4074 25.8772 15.1699 27.2385 14.0058 28.7235C13.8974 28.8634 13.7584 28.9766 13.5996 29.0545C13.4407 29.1324 13.2661 29.1729 13.0891 29.1729C12.9121 29.1729 12.7375 29.1324 12.5787 29.0545C12.4198 28.9766 12.2808 28.8634 12.1724 28.7235L11.3841 27.7197C10.2901 26.3253 9.71929 24.5917 9.77078 22.8202C10.1796 22.7509 10.5936 22.7172 11.0083 22.7193V23.031C11.0093 23.2122 11.0545 23.3903 11.14 23.5501C11.2254 23.7098 11.3486 23.8463 11.4987 23.9477L12.4979 24.626C12.6831 24.7539 12.9029 24.8224 13.1281 24.8224C13.3532 24.8224 13.573 24.7539 13.7583 24.626L14.7299 23.9522C14.8741 23.8473 14.991 23.7093 15.0708 23.5498C15.1506 23.3902 15.1908 23.2139 15.1883 23.0356V22.7193C15.5968 22.718 16.0047 22.7518 16.4074 22.8202Z" fill="#497DB0"/>
<path id="Vector_25" d="M21.9849 44.0001H11.4157C3.43617 39.811 5.57658 40.9751 2.33159 39.1097C1.27698 38.502 0.502246 37.5054 0.17329 36.3335C-0.155665 35.1616 -0.0126903 33.9075 0.571598 32.8397C1.51576 31.1118 3.70201 27.1197 5.05408 25.6943L7.61158 28.7972C8.04195 29.3222 8.633 29.691 9.29366 29.8468L15.0228 31.2218C15.3381 31.2964 15.6132 31.4879 15.7928 31.7576C15.9723 32.0273 16.0427 32.3551 15.9899 32.6747L14.9266 38.9585C14.8705 39.2913 14.8878 39.6324 14.9772 39.9579C15.0667 40.2833 15.226 40.5854 15.4443 40.8429C15.6625 41.1004 15.9343 41.3071 16.2407 41.4487C16.5471 41.5903 16.8807 41.6633 17.2182 41.6626H18.4695C18.7332 41.6626 18.9862 41.5578 19.1727 41.3713C19.3593 41.1848 19.464 40.9318 19.464 40.668C19.464 40.503 19.5007 40.6955 18.7628 37.6339C18.735 37.507 18.7344 37.3756 18.7612 37.2484C18.788 37.1212 18.8416 37.0012 18.9183 36.8964C18.995 36.7915 19.0932 36.7041 19.2062 36.64C19.3193 36.576 19.4446 36.5366 19.574 36.5247L20.9765 41.2272H21.7328C21.7236 41.273 21.9849 43.9497 21.9849 44.0001Z" fill="#F4B675"/>
<path id="Vector_26" d="M3.83008 42.29L11.4155 43.9996H12.4101C12.7905 42.3084 14.5138 34.668 14.9125 32.8897L6.40132 30.9692C5.29216 35.8001 4.90716 37.5142 3.83008 42.29Z" fill="#FF4B6E"/>
<path id="Vector_27" d="M7.6851 33.7586L6.21095 40.2999C6.14083 40.6111 6.33621 40.9201 6.64735 40.9902L10.3987 41.8356C10.7098 41.9058 11.0189 41.7104 11.089 41.3992L12.5632 34.8579C12.6333 34.5467 12.4379 34.2377 12.1268 34.1676L8.37543 33.3222C8.06429 33.252 7.75522 33.4474 7.6851 33.7586Z" fill="#FF8C87"/>
<path id="Vector_28" d="M9.17862 38.413C9.78362 38.5734 10.3886 38.7293 10.3428 38.7247C10.5418 38.7429 10.7419 38.7054 10.9208 38.6163C11.0997 38.5273 11.2502 38.3903 11.3557 38.2205L11.4336 38.1014C11.5169 37.9646 11.6289 37.8474 11.7618 37.758C11.8948 37.6686 12.0455 37.6091 12.2036 37.5835C12.2499 37.5771 12.2969 37.5812 12.3414 37.5955C12.3858 37.6098 12.4265 37.6339 12.4604 37.6661C12.4942 37.6982 12.5205 37.7375 12.5371 37.7811C12.5538 37.8247 12.5604 37.8715 12.5565 37.918L12.5015 38.5001C12.5007 38.6127 12.5414 38.7217 12.6158 38.8062C12.6902 38.8908 12.7931 38.9449 12.9049 38.9584L15.1369 39.1693C15.2254 39.1767 15.3114 39.2017 15.3901 39.2428C15.4688 39.2838 15.5385 39.3401 15.5953 39.4083C15.652 39.4766 15.6946 39.5554 15.7205 39.6403C15.7465 39.7251 15.7553 39.8143 15.7465 39.9026L15.6961 40.448C15.6695 40.7521 15.5824 41.0478 15.4399 41.3178C15.2975 41.5877 15.1025 41.8265 14.8665 42.0201C14.6744 42.2354 14.4361 42.4046 14.1694 42.5149C13.9028 42.6252 13.6146 42.6738 13.3265 42.6572L11.5299 42.4876C10.8057 42.4234 10.4803 41.9926 9.90278 41.4289L8.56445 40.9705L9.17862 38.413Z" fill="#FFAAA0"/>
<path id="Vector_29" d="M15.2112 19.7085V23.0452C15.2131 23.2234 15.1724 23.3994 15.0927 23.5588C15.013 23.7182 14.8966 23.8564 14.7529 23.9618L13.7812 24.6356C13.596 24.7635 13.3762 24.832 13.151 24.832C12.9259 24.832 12.7061 24.7635 12.5208 24.6356L11.5217 23.9572C11.3718 23.8556 11.2489 23.719 11.1635 23.5594C11.078 23.3997 11.0327 23.2217 11.0312 23.0406V19.7085C12.3846 20.1808 13.8579 20.1808 15.2112 19.7085Z" fill="#FF7D82"/>
<path id="Vector_30" d="M2.33203 39.1049L8.20326 42.4874L9.38118 37.5603L4.77952 35.0166L2.33203 39.1049Z" fill="#F4D493"/>
<path id="Vector_31" d="M21.7914 41.9784C21.7186 42.0451 21.6261 42.0865 21.5279 42.0964C21.4296 42.1063 21.3307 42.0842 21.246 42.0334C20.4822 41.5948 19.9235 40.8712 19.6923 40.0213L18.4502 35.5205C18.4329 35.4615 18.4276 35.3996 18.4347 35.3386C18.4418 35.2775 18.4611 35.2185 18.4914 35.165C18.5218 35.1116 18.5626 35.0648 18.6114 35.0274C18.6602 34.9901 18.7161 34.9629 18.7756 34.9476C18.8349 34.9295 18.8972 34.9237 18.9588 34.9305C19.0204 34.9372 19.08 34.9563 19.134 34.9868C19.1879 35.0172 19.2352 35.0582 19.2728 35.1074C19.3105 35.1566 19.3378 35.2129 19.3531 35.273L20.6089 39.7738C20.7747 40.3832 21.1729 40.9033 21.7181 41.2221L21.7914 41.9784Z" fill="#F48957"/>
<path id="Vector_32" d="M24.2222 33.9712L22.8793 36.2628C22.8492 36.3161 22.8089 36.3629 22.7607 36.4006C22.7126 36.4383 22.6574 36.4662 22.5985 36.4825C22.5395 36.4989 22.4779 36.5035 22.4172 36.4961C22.3565 36.4887 22.2978 36.4694 22.2445 36.4393C22.1913 36.4092 22.1444 36.3689 22.1067 36.3207C22.0691 36.2725 22.0412 36.2174 22.0248 36.1585C22.0084 36.0995 22.0038 36.0379 22.0113 35.9772C22.0187 35.9165 22.038 35.8578 22.0681 35.8045L23.9335 32.5962C24.1122 33.412 24.2222 33.9712 24.2222 33.9712Z" fill="#F4B675"/>
<path id="Vector_33" d="M28.4004 28.9488C28.6616 27.6518 28.7441 26.8726 29.3171 25.9101L30.6325 23.7789C30.7497 23.5888 30.9184 23.4359 31.1189 23.3377C31.3195 23.2395 31.5438 23.2001 31.7658 23.2241C31.9878 23.2481 32.1985 23.3344 32.3735 23.4732C32.5484 23.6119 32.6806 23.7973 32.7545 24.008L32.9287 24.5076C33.2487 25.4149 33.2677 26.4012 32.9829 27.3201C32.6981 28.239 32.1245 29.0416 31.3475 29.6088L30.3391 30.3376L28.4004 28.9488Z" fill="#FFAAA0"/>
<path id="Vector_34" d="M4.46685 42.437L4.22852 43.9999H11.4152L4.46685 42.437Z" fill="#F4B675"/>
</g>
</svg>
