<svg width="43" height="44" viewBox="0 0 43 44" fill="none" xmlns="http://www.w3.org/2000/svg">
<path d="M36.1114 15.1877C34.2792 14.6011 33.0531 13.679 32.4669 12.4468C31.7651 10.9714 32.2806 9.61615 32.303 9.55923C32.3696 9.3953 32.498 9.26412 32.6605 9.19396C32.8229 9.1238 33.0065 9.12028 33.1715 9.18415C33.3365 9.24803 33.4698 9.37418 33.5427 9.53543C33.6156 9.69668 33.6223 9.88011 33.5612 10.0462C33.5446 10.0912 33.2391 10.9503 33.6947 11.8869C34.1193 12.7598 35.0709 13.4381 36.5228 13.9029C36.6912 13.959 36.8307 14.0793 36.9111 14.2376C36.9914 14.3959 37.0061 14.5795 36.952 14.7486C36.8978 14.9176 36.7792 15.0586 36.6219 15.1408C36.4645 15.223 36.2811 15.2398 36.1114 15.1877Z" fill="#2A4F95"/>
<path d="M5.25619 17.5884H14.9075V41.5831C13.4703 41.1702 12.0717 40.4246 10.7784 39.3454C9.8628 38.5809 8.72064 38.3318 7.64675 38.6772C4.2373 39.774 1.51054 34.7203 3.25237 30.5692C5.30289 25.6882 3.67429 23.4409 5.25619 17.5884Z" fill="#DF8A57"/>
<path d="M27.585 38.6772C26.5111 38.3318 25.3689 38.5818 24.4524 39.3454C23.16 40.4238 21.7623 41.1693 20.3242 41.5831V17.5884H29.9755C31.558 23.4425 29.9301 25.6892 31.9802 30.5693C33.7213 34.7183 30.9902 39.7727 27.585 38.6772Z" fill="#EAAA83"/>
<path d="M27.682 41.2906V42.6504C27.682 43.3951 27.0776 43.9995 26.3329 43.9995H24.3866L22.4106 43.1486L20.3241 43.9996H18.233C18.233 43.9996 10.4524 41.3401 16.7967 31.1591C17.9848 31.0736 19.1787 31.1972 20.3241 31.5242L21.979 34.0578L24.3867 33.8024C26.4068 35.6391 27.682 38.333 27.682 41.2906Z" fill="#5972A5"/>
<path d="M18.2325 43.9998H14.9056L12.8748 43.3648L10.8431 43.9998H8.7143C7.96962 43.9998 7.36523 43.3954 7.36523 42.6507V41.2908C7.36523 38.2383 8.71159 35.5006 10.8431 33.6388L12.8749 33.753L14.7213 31.5243C15.3762 31.3413 16.0373 31.2128 16.7962 31.1592C15.877 34.0949 14.7978 39.7555 18.2325 43.9998Z" fill="#3B5A9B"/>
<path d="M14.9063 31.4741V43.9998H10.8438V33.6389C12.0136 32.6147 13.4038 31.874 14.9063 31.4741Z" fill="#FFEAB7"/>
<path d="M24.3868 33.8026V43.9998H20.3242V31.5244C21.7638 31.9311 23.1844 32.6991 24.3868 33.8026Z" fill="#FFF8E6"/>
<path d="M30.7295 23.0122C32.0385 23.0122 33.0996 21.9511 33.0996 20.6421C33.0996 19.3331 32.0385 18.272 30.7295 18.272C29.4205 18.272 28.3594 19.3331 28.3594 20.6421C28.3594 21.9511 29.4205 23.0122 30.7295 23.0122Z" fill="#FFCBBE"/>
<path d="M4.31935 23.0122C5.62834 23.0122 6.68949 21.9511 6.68949 20.6421C6.68949 19.3331 5.62834 18.272 4.31935 18.272C3.01036 18.272 1.94922 19.3331 1.94922 20.6421C1.94922 21.9511 3.01036 23.0122 4.31935 23.0122Z" fill="#FFDDCF"/>
<path d="M13.0224 32.3618C13.0224 32.3618 13.0206 32.3609 13.0179 32.36C12.7427 32.2296 -0.0142193 26.1038 11.908 11.4826C13.2724 9.80874 14.0324 8.6252 14.3067 7.84368C15.3581 7.57374 16.4393 7.43744 17.5247 7.43799C24.173 7.43799 29.644 12.4808 30.3203 18.9501C31.3255 28.5187 21.8978 35.6772 13.0224 32.3618Z" fill="#FFDDCF"/>
<path d="M13.0215 32.3607C4.06349 29.0129 1.7611 17.3868 8.76745 10.8779L11.9072 11.4814C11.9072 11.4814 4.17427 23.8614 13.0215 32.3607Z" fill="#FFCBBE"/>
<path d="M10.3687 26.8588C11.8268 26.8588 13.0088 25.9174 13.0088 24.7563C13.0088 23.5951 11.8268 22.6538 10.3687 22.6538C8.91055 22.6538 7.72852 23.5951 7.72852 24.7563C7.72852 25.9174 8.91055 26.8588 10.3687 26.8588Z" fill="#FD9FAA"/>
<path d="M24.6792 26.8588C26.1373 26.8588 27.3194 25.9174 27.3194 24.7563C27.3194 23.5951 26.1373 22.6538 24.6792 22.6538C23.2211 22.6538 22.0391 23.5951 22.0391 24.7563C22.0391 25.9174 23.2211 26.8588 24.6792 26.8588Z" fill="#FD9FAA"/>
<path d="M11.907 23.407C11.7281 23.407 11.5565 23.3359 11.43 23.2094C11.3035 23.0829 11.2324 22.9113 11.2324 22.7324V21.6531C11.2324 21.4742 11.3035 21.3026 11.43 21.1761C11.5565 21.0496 11.7281 20.9785 11.907 20.9785C12.0859 20.9785 12.2575 21.0496 12.384 21.1761C12.5105 21.3026 12.5816 21.4742 12.5816 21.6531V22.7324C12.5815 22.9113 12.5105 23.0829 12.384 23.2094C12.2575 23.3359 12.0859 23.4069 11.907 23.407ZM23.1401 23.407C22.9612 23.407 22.7896 23.3359 22.6631 23.2094C22.5366 23.0829 22.4655 22.9113 22.4655 22.7324V21.6531C22.4655 21.4742 22.5366 21.3026 22.6631 21.1761C22.7896 21.0496 22.9612 20.9785 23.1401 20.9785C23.319 20.9785 23.4906 21.0496 23.6171 21.1761C23.7436 21.3026 23.8147 21.4742 23.8147 21.6531V22.7324C23.8147 22.9113 23.7436 23.0829 23.6171 23.2094C23.4906 23.3359 23.319 23.4069 23.1401 23.407ZM17.5235 24.0494C17.1464 24.0493 16.7738 23.9684 16.4306 23.8121C16.0874 23.6558 15.7818 23.4278 15.5342 23.1434C15.4199 23.0081 15.3635 22.8333 15.377 22.6567C15.3905 22.4801 15.4729 22.3159 15.6065 22.1996C15.74 22.0832 15.9139 22.024 16.0907 22.0348C16.2674 22.0455 16.4329 22.1254 16.5513 22.257C17.0661 22.8478 17.9811 22.8478 18.4958 22.257C18.6142 22.1254 18.7797 22.0455 18.9564 22.0348C19.1332 22.024 19.3071 22.0832 19.4406 22.1996C19.5742 22.3159 19.6566 22.4801 19.6701 22.6567C19.6836 22.8333 19.6272 23.0081 19.5129 23.1434C19.2653 23.4278 18.9596 23.6558 18.6165 23.8121C18.2733 23.9684 17.9006 24.0493 17.5235 24.0494Z" fill="#3E4F61"/>
<path d="M34.4041 10.606L23.5296 15.531C20.8334 16.7523 17.7603 17.0173 15.8119 16.658C1.0638 8.52841 15.0385 1.01581 15.4755 0.784721L15.4854 0.780268L15.4863 0.779308C16.709 0.22547 17.572 -0.344693 18.7852 0.257684L34.4481 7.99963C35.4833 8.5113 35.4554 10.1293 34.4041 10.606Z" fill="#3B5A9B"/>
<path d="M15.8133 16.6586C14.3004 16.4539 12.8308 16.0043 11.4624 15.3274C0.484127 9.89999 0.688934 10.0239 0.498007 9.86611C-0.264393 9.2207 -0.143306 7.86212 0.805481 7.43007L14.6581 1.15565C14.6581 1.15478 14.6581 1.15478 14.6589 1.15478L15.4874 0.779297C13.0906 3.3662 10.2763 8.66084 15.8133 16.6586Z" fill="#2A4F95"/>
<path d="M41.6818 19.4237L38.5453 16.0722C38.9728 14.3657 37.1334 12.9117 35.5545 13.8226C34.6568 14.3416 34.2953 15.4813 34.7261 16.4239C34.935 16.8846 35.3093 17.2499 35.775 17.4475L36.5494 21.9719C36.7014 22.8633 37.6692 23.3553 38.4788 22.9532C41.4894 21.458 41.5112 21.4973 41.7619 21.175C42.1521 20.673 42.1548 19.9283 41.6818 19.4237Z" fill="#5972A5"/>
<path d="M38.6912 15.4424C38.2709 15.4424 38.1539 15.5525 36.6574 16.296V16.2959L35.6626 16.7898C35.4207 16.9092 35.2202 17.0986 35.0872 17.3333C34.8727 17.7115 34.8438 18.1862 35.0519 18.6049C35.0815 18.6646 35.1148 18.7211 35.1516 18.7742C35.4086 19.1462 35.8299 19.3578 36.2662 19.3578C36.6872 19.3578 36.6557 19.3211 39.2939 18.0113C40.5705 17.3772 40.1166 15.4424 38.6912 15.4424Z" fill="#FCEC78"/>
<path d="M28.7515 17.7912C26.361 17.2048 21.9405 16.4808 18.3654 17.9423C16.8701 18.5525 16.4681 17.1 12.0743 17.0852C5.76239 12.5801 12.3387 7.45361 12.3387 7.45361H23.8608C26.0013 7.45361 27.9233 9.26677 28.7048 12.0216L29.9801 16.5186C30.1941 17.2741 29.5142 17.9783 28.7515 17.7912Z" fill="#5972A5"/>
<path d="M12.8831 17.1086C12.3028 17.1086 10.0376 16.9186 6.48032 17.7912C5.71766 17.9783 5.0368 17.274 5.25086 16.5186L6.52711 12.0216C7.30872 9.26686 9.22978 7.45361 11.3712 7.45361H12.3389C11.4746 8.85942 9.30355 13.2332 12.8831 17.1086Z" fill="#3B5A9B"/>
</svg>
